<?xml version="1.0" encoding="utf-8"?><!-- Uploaded to: SVG Repo, www.svgrepo.com, Generator: SVG Repo Mixer Tools -->
<svg width="25px" height="25px" viewBox="0 0 45 45" fill="none" xmlns="http://www.w3.org/2000/svg">
<path d="M34 13.5H26V10.5C25.999 9.97 25.788 9.461 25.413 9.086C25.039 
8.712 24.53 8.501 24 8.5H10C9.47 8.501 8.961 8.711 8.586 9.086C8.211 9.461 8.001 9.97
 8 10.5V34.5C8.001 35.03 8.212 35.539 8.586 35.913C8.961 36.288 9.47 36.499 10 36.5H34C34.53 
 36.499 35.038 36.288 35.413 35.913C35.788 35.538 35.999 35.03 36 34.5V15.5C35.999 14.97 35.788 
 14.461 35.413 14.086C35.039 13.712 34.53 13.501 34 13.5ZM19 34.5H15V29.5H19V34.5ZM24
  34.5H21V29.5C20.999 28.97 20.788 28.461 20.413 28.087C20.039 27.712 19.53 27.501 19 27.5H15C14.47 
  27.501 13.961 27.712 13.586 28.087C13.212 28.461 13.001 28.97 13 29.5V34.5H10L9.999 10.5H24V34.5ZM34
   34.5H26V15.5H34V34.5ZM31 22.5C31 22.698 30.941 22.891 30.831 23.056C30.722 23.22 30.565 23.348 30.383
    23.424C30.2 23.5 29.999 23.519 29.805 23.481C29.611 23.442 29.433 23.347 29.293 23.207C29.153 23.067
     29.058 22.889 29.019 22.695C28.981 22.501 29 22.3 29.076 22.117C29.152 21.935 29.28 21.778 29.444 
     21.669C29.609 21.559 29.802 21.5 30 21.5C30.265 21.5 30.52 21.605 30.707 21.793C30.895 21.98 31
      22.235 31 22.5ZM29 18.5C29 18.302 29.059 18.109 29.169 17.944C29.278 17.78 29.435 17.652 29.617
       17.576C29.8 17.5 30.001 17.481 30.195 17.519C30.389 17.558 30.567 17.653 30.707 17.793C30.847 
       17.933 30.942 18.111 30.981 18.305C31.019 18.499 31 18.7 30.924 18.883C30.848 19.065 30.72 19.222 
       30.556 19.331C30.391 19.441 30.198 19.5 30 19.5C29.735 19.5 29.48 19.395 29.293 19.207C29.105
        19.02 29 18.765 29 18.5ZM21 22.5C21 22.698 20.941 22.891 20.831 23.056C20.722 23.22 20.565 
        23.348 20.383 23.424C20.2 23.5 19.999 23.519 19.805 23.481C19.611 23.442 19.433 23.347 19.293 
        23.207C19.153 23.067 19.058 22.889 19.019 22.695C18.981 22.501 19 22.3 19.076 22.117C19.152 
        21.935 19.28 21.778 19.444 21.669C19.609 21.559 19.802 21.5 20 21.5C20.265 21.5 20.52 21.605 
        20.707 21.793C20.895 21.98 21 22.235 21 22.5ZM21 18.5C21 18.698 20.941 18.891 20.831 
        19.056C20.722 19.22 20.565 19.348 20.383 19.424C20.2 19.5 19.999 19.519 19.805
         19.481C19.611 19.442 19.433 19.347 19.293 19.207C19.153 19.067 19.058 18.889
          19.019 18.695C18.981 18.501 19 18.3 19.076 18.117C19.152 17.935 19.28 17.778 
          19.444 17.669C19.609 17.559 19.802 17.5 20 17.5C20.265 17.5 20.52 17.605 20.707 
          17.793C20.895 17.98 21 18.235 21 18.5ZM21 14.5C21 14.698 20.941 14.891 20.831
           15.056C20.722 15.22 20.565 15.348 20.383 15.424C20.2 15.5 19.999 15.519 19.805
            15.481C19.611 15.442 19.433 15.347 19.293 15.207C19.153 15.067 19.058 14.889 
            19.019 14.695C18.981 14.501 19 14.3 19.076 14.117C19.152 13.935 19.28 13.778 
            19.444 13.669C19.609 13.559 19.802 13.5 20 13.5C20.265 13.5 20.52 13.605 20.707
             13.793C20.895 13.98 21 14.235 21 14.5ZM15 22.5C15 22.698 14.941 22.891 14.831 
             23.056C14.722 23.22 14.565 23.348 14.383 23.424C14.2 23.5 13.999 23.519 13.805
              23.481C13.611 23.442 13.433 23.347 13.293 23.207C13.153 23.067 13.058 22.889 13.019 
              22.695C12.981 22.501 13 22.3 13.076 22.117C13.152 21.935 13.28 21.778 13.444 21.669C13.609
               21.559 13.802 21.5 14 21.5C14.265 21.5 14.52 21.605 14.707 21.793C14.895 21.98 15 22.235 
               15 22.5ZM15 18.5C15 18.698 14.941 18.891 14.831 19.056C14.722 19.22 14.565 19.348 14.383 
               19.424C14.2 19.5 13.999 19.519 13.805 19.481C13.611 19.442 13.433 19.347 13.293 
               19.207C13.153 19.067 13.058 18.889 13.019 18.695C12.981 18.501 13 18.3 13.076 
               18.117C13.152 17.935 13.28 17.778 13.444 17.669C13.609 17.559 13.802 17.5 14 
               17.5C14.265 17.5 14.52 17.605 14.707 17.793C14.895 17.98 15 18.235 15 18.5ZM15 14.5C15
                14.698 14.941 14.891 14.831 15.056C14.722 15.22 14.565 15.348 14.383 15.424C14.2 15.5 13.999 15.519 13.805 15.481C13.611
                 15.442 13.433 15.347 13.293 15.207C13.153 15.067 13.058 14.889 13.019 14.695C12.981 14.501 13 14.3 
                 13.076 14.117C13.152 13.935 13.28 13.778 13.444 13.669C13.609 13.559 13.802 13.5 14 13.5C14.265 13.5
                  14.52 13.605 14.707 13.793C14.895 13.98 15 14.235 15 14.5Z" fill="none" stroke="white"/>
</svg>