<svg xmlns="http://www.w3.org/2000/svg" xmlns:xlink="http://www.w3.org/1999/xlink" width="500" zoomAndPan="magnify" viewBox="0 0 375 187.499995" height="250" preserveAspectRatio="xMidYMid meet" version="1.0"><defs><g/><clipPath id="9916f63187"><path d="M 0.5 0 L 374.5 0 L 374.5 187 L 0.5 187 Z M 0.5 0 " clip-rule="nonzero"/></clipPath><clipPath id="4a1b088e04"><path d="M 38 58.234375 L 200.578125 58.234375 L 200.578125 117.464844 L 38 117.464844 Z M 38 58.234375 " clip-rule="nonzero"/></clipPath><clipPath id="df32d988a5"><path d="M 76.148438 58.234375 L 197.292969 58.234375 C 198.363281 58.234375 199.355469 58.808594 199.886719 59.738281 C 200.417969 60.671875 200.40625 61.816406 199.859375 62.738281 L 170.121094 112.960938 C 168.464844 115.753906 165.460938 117.464844 162.214844 117.464844 L 41.070312 117.464844 C 40 117.464844 39.011719 116.890625 38.480469 115.957031 C 37.949219 115.027344 37.957031 113.882812 38.503906 112.960938 L 68.246094 62.738281 C 69.898438 59.945312 72.902344 58.234375 76.148438 58.234375 Z M 76.148438 58.234375 " clip-rule="nonzero"/></clipPath></defs><g clip-path="url(#9916f63187)"><path fill="#ffffff" d="M 0.5 0 L 374.5 0 L 374.5 187 L 0.5 187 Z M 0.5 0 " fill-opacity="1" fill-rule="nonzero"/><path fill="#222b3c" d="M 0.5 0 L 374.5 0 L 374.5 187 L 0.5 187 Z M 0.5 0 " fill-opacity="1" fill-rule="nonzero"/></g><g clip-path="url(#4a1b088e04)"><g clip-path="url(#df32d988a5)"><path fill="#dddddd" d="M 35.835938 58.234375 L 202.429688 58.234375 L 202.429688 117.464844 L 35.835938 117.464844 Z M 35.835938 58.234375 " fill-opacity="1" fill-rule="nonzero"/></g></g><g fill="#222b3c" fill-opacity="1"><g transform="translate(50.894373, 107.495863)"><g><path d="M 39.359375 -27.296875 C 42.316406 -27.296875 44.671875 -26.351562 46.421875 -24.46875 C 48.171875 -22.59375 49.046875 -20.09375 49.046875 -16.96875 L 49.046875 0 L 40.46875 0 L 40.46875 -14.5625 C 40.46875 -16.164062 40.050781 -17.421875 39.21875 -18.328125 C 38.382812 -19.242188 37.253906 -19.703125 35.828125 -19.703125 C 34.222656 -19.671875 32.945312 -19.0625 32 -17.875 C 31.050781 -16.695312 30.578125 -15.179688 30.578125 -13.328125 L 30.578125 0 L 21.953125 0 L 21.953125 -14.5625 C 21.953125 -16.164062 21.539062 -17.421875 20.71875 -18.328125 C 19.90625 -19.242188 18.785156 -19.703125 17.359375 -19.703125 C 15.734375 -19.671875 14.4375 -19.054688 13.46875 -17.859375 C 12.507812 -16.660156 12.03125 -15.148438 12.03125 -13.328125 L 12.03125 0 L 3.4375 0 L 3.4375 -26.890625 L 12.03125 -26.890625 L 12.03125 -22.453125 C 13.851562 -25.609375 16.8125 -27.222656 20.90625 -27.296875 C 23.0625 -27.296875 24.929688 -26.753906 26.515625 -25.671875 C 28.097656 -24.585938 29.222656 -23.097656 29.890625 -21.203125 C 31.648438 -25.191406 34.804688 -27.222656 39.359375 -27.296875 Z M 39.359375 -27.296875 "/></g></g></g><g fill="#222b3c" fill-opacity="1"><g transform="translate(99.778507, 107.495863)"><g><path d="M 4.515625 -37.890625 C 5.359375 -38.734375 6.445312 -39.15625 7.78125 -39.15625 C 9.113281 -39.15625 10.203125 -38.734375 11.046875 -37.890625 C 11.898438 -37.046875 12.328125 -35.957031 12.328125 -34.625 C 12.328125 -33.289062 11.898438 -32.191406 11.046875 -31.328125 C 10.203125 -30.460938 9.113281 -30.03125 7.78125 -30.03125 C 6.445312 -30.03125 5.359375 -30.460938 4.515625 -31.328125 C 3.671875 -32.191406 3.25 -33.289062 3.25 -34.625 C 3.25 -35.957031 3.671875 -37.046875 4.515625 -37.890625 Z M 12.03125 0 L 3.4375 0 L 3.4375 -26.890625 L 12.03125 -26.890625 Z M 12.03125 0 "/></g></g></g><g fill="#222b3c" fill-opacity="1"><g transform="translate(112.448271, 107.495863)"><g><path d="M 21.046875 -27.296875 C 24.015625 -27.296875 26.394531 -26.351562 28.1875 -24.46875 C 29.976562 -22.59375 30.875 -20.09375 30.875 -16.96875 L 30.875 0 L 22.296875 0 L 22.296875 -14.5625 C 22.296875 -16.125 21.867188 -17.363281 21.015625 -18.28125 C 20.171875 -19.195312 19.019531 -19.65625 17.5625 -19.65625 C 16.03125 -19.65625 14.773438 -19.15625 13.796875 -18.15625 C 12.816406 -17.15625 12.242188 -15.84375 12.078125 -14.21875 L 12.078125 0 L 3.4375 0 L 3.4375 -26.890625 L 12.078125 -26.890625 L 12.078125 -22.5 C 13.972656 -25.625 16.960938 -27.222656 21.046875 -27.296875 Z M 21.046875 -27.296875 "/></g></g></g><g fill="#222b3c" fill-opacity="1"><g transform="translate(143.175333, 107.495863)"><g><path d="M 19.109375 -7.4375 L 20.796875 -1.453125 C 18.703125 -0.210938 16.3125 0.40625 13.625 0.40625 C 10.957031 0.40625 8.800781 -0.332031 7.15625 -1.8125 C 5.507812 -3.300781 4.6875 -5.40625 4.6875 -8.125 L 4.6875 -20 L 0.953125 -20 L 0.953125 -25.640625 L 4.6875 -25.640625 L 4.6875 -33.125 L 13.265625 -33.125 L 13.265625 -25.6875 L 20.3125 -25.6875 L 20.3125 -20 L 13.265625 -20 L 13.265625 -9.484375 C 13.265625 -8.453125 13.472656 -7.691406 13.890625 -7.203125 C 14.304688 -6.722656 14.929688 -6.5 15.765625 -6.53125 C 16.566406 -6.53125 17.679688 -6.832031 19.109375 -7.4375 Z M 19.109375 -7.4375 "/></g></g></g><g fill="#dddddd" fill-opacity="1"><g transform="translate(180.509372, 107.033754)"><g><path d="M 15.21875 -27.1875 C 19.863281 -27.1875 23.359375 -25.753906 25.703125 -22.890625 C 28.054688 -20.035156 29.082031 -16.113281 28.78125 -11.125 L 9.875 -11.125 C 10.3125 -9.53125 11.078125 -8.300781 12.171875 -7.4375 C 13.265625 -6.570312 14.609375 -6.140625 16.203125 -6.140625 C 18.671875 -6.140625 20.816406 -7.050781 22.640625 -8.875 L 27.1875 -4.4375 C 24.289062 -1.28125 20.382812 0.296875 15.46875 0.296875 C 11.101562 0.296875 7.632812 -0.945312 5.0625 -3.4375 C 2.488281 -5.9375 1.203125 -9.242188 1.203125 -13.359375 C 1.203125 -17.515625 2.488281 -20.859375 5.0625 -23.390625 C 7.632812 -25.921875 11.019531 -27.1875 15.21875 -27.1875 Z M 9.71875 -15.765625 L 20.5 -15.765625 C 20.5 -17.390625 20.023438 -18.703125 19.078125 -19.703125 C 18.128906 -20.703125 16.875 -21.203125 15.3125 -21.203125 C 13.84375 -21.203125 12.609375 -20.707031 11.609375 -19.71875 C 10.617188 -18.738281 9.988281 -17.421875 9.71875 -15.765625 Z M 9.71875 -15.765625 "/></g></g></g><g fill="#dddddd" fill-opacity="1"><g transform="translate(207.68947, 107.033754)"><g><path d="M 15.515625 -27.28125 C 19.203125 -27.28125 22.066406 -26.421875 24.109375 -24.703125 C 26.160156 -22.992188 27.203125 -20.613281 27.234375 -17.5625 L 27.234375 0 L 18.796875 0 L 18.796875 -3.09375 C 17.035156 -0.757812 14.296875 0.40625 10.578125 0.40625 C 7.742188 0.40625 5.492188 -0.375 3.828125 -1.9375 C 2.171875 -3.507812 1.34375 -5.539062 1.34375 -8.03125 C 1.34375 -10.59375 2.234375 -12.578125 4.015625 -13.984375 C 5.796875 -15.398438 8.347656 -16.125 11.671875 -16.15625 L 18.75 -16.15625 L 18.75 -16.5625 C 18.75 -17.882812 18.304688 -18.921875 17.421875 -19.671875 C 16.546875 -20.421875 15.242188 -20.796875 13.515625 -20.796875 C 11.085938 -20.796875 8.410156 -20.046875 5.484375 -18.546875 L 3.046875 -24.234375 C 7.398438 -26.265625 11.554688 -27.28125 15.515625 -27.28125 Z M 13.21875 -5.4375 C 14.582031 -5.4375 15.78125 -5.773438 16.8125 -6.453125 C 17.84375 -7.140625 18.488281 -8.03125 18.75 -9.125 L 18.75 -11.515625 L 13.3125 -11.515625 C 10.71875 -11.515625 9.421875 -10.550781 9.421875 -8.625 C 9.421875 -7.625 9.753906 -6.84375 10.421875 -6.28125 C 11.085938 -5.71875 12.019531 -5.4375 13.21875 -5.4375 Z M 13.21875 -5.4375 "/></g></g></g><g fill="#dddddd" fill-opacity="1"><g transform="translate(234.769822, 107.033754)"><g><path d="M 13.0625 -27.28125 C 17.019531 -27.28125 20.710938 -26.265625 24.140625 -24.234375 L 21.203125 -18.65625 C 17.867188 -20.445312 15.039062 -21.34375 12.71875 -21.34375 C 10.957031 -21.34375 10.078125 -20.726562 10.078125 -19.5 C 10.078125 -18.832031 10.554688 -18.273438 11.515625 -17.828125 C 12.484375 -17.378906 13.664062 -16.972656 15.0625 -16.609375 C 16.457031 -16.242188 17.84375 -15.785156 19.21875 -15.234375 C 20.601562 -14.679688 21.773438 -13.804688 22.734375 -12.609375 C 23.703125 -11.421875 24.1875 -9.960938 24.1875 -8.234375 C 24.1875 -5.535156 23.140625 -3.429688 21.046875 -1.921875 C 18.953125 -0.410156 16.226562 0.34375 12.875 0.34375 C 8.113281 0.34375 4.085938 -0.914062 0.796875 -3.4375 L 3.546875 -8.921875 C 6.703125 -6.703125 9.875 -5.59375 13.0625 -5.59375 C 15.03125 -5.59375 16.015625 -6.207031 16.015625 -7.4375 C 16.015625 -8.132812 15.539062 -8.710938 14.59375 -9.171875 C 13.644531 -9.640625 12.488281 -10.054688 11.125 -10.421875 C 9.757812 -10.785156 8.394531 -11.242188 7.03125 -11.796875 C 5.664062 -12.347656 4.507812 -13.203125 3.5625 -14.359375 C 2.613281 -15.523438 2.140625 -16.988281 2.140625 -18.75 C 2.140625 -21.445312 3.15625 -23.539062 5.1875 -25.03125 C 7.21875 -26.53125 9.84375 -27.28125 13.0625 -27.28125 Z M 13.0625 -27.28125 "/></g></g></g><g fill="#dddddd" fill-opacity="1"><g transform="translate(257.511194, 107.033754)"><g><path d="M 29.28125 -26.875 L 17.65625 2.796875 C 15.65625 7.648438 12.195312 10.078125 7.28125 10.078125 C 4.425781 10.078125 1.816406 9.160156 -0.546875 7.328125 L 3.046875 1.453125 C 4.242188 2.410156 5.421875 2.890625 6.578125 2.890625 C 8.109375 2.890625 9.222656 2.175781 9.921875 0.75 L 10.578125 -0.59375 L -0.59375 -26.875 L 8.28125 -26.875 L 14.859375 -9.03125 L 20.703125 -26.875 Z M 29.28125 -26.875 "/></g></g></g></svg>