<svg xmlns="http://www.w3.org/2000/svg" xmlns:xlink="http://www.w3.org/1999/xlink" width="200" zoomAndPan="magnify" viewBox="0 0 150 60" height="80" preserveAspectRatio="xMidYMid meet" version="1.0"><defs><g/><clipPath id="c31bc6ad79"><path d="M 68 0 L 128 0 L 128 59 L 68 59 Z M 68 0 " clip-rule="nonzero"/></clipPath><clipPath id="5d419881a3"><path d="M 97.882812 0 L 127.050781 29.167969 L 97.882812 58.335938 L 68.714844 29.167969 Z M 97.882812 0 " clip-rule="nonzero"/></clipPath><clipPath id="de1af5bbc7"><path d="M 97.882812 0 L 127.300781 29.417969 L 97.882812 58.835938 L 68.464844 29.417969 Z M 97.882812 0 " clip-rule="nonzero"/></clipPath><clipPath id="aa4968441f"><path d="M 97.882812 0 L 127.300781 29.417969 L 97.882812 58.835938 L 68.464844 29.417969 Z M 97.882812 0 " clip-rule="nonzero"/></clipPath><clipPath id="0d98eb5fda"><path d="M 44 0 L 104 0 L 104 59 L 44 59 Z M 44 0 " clip-rule="nonzero"/></clipPath><clipPath id="81149dfc3d"><path d="M 73.957031 0 L 103.125 29.167969 L 73.957031 58.335938 L 44.789062 29.167969 Z M 73.957031 0 " clip-rule="nonzero"/></clipPath><clipPath id="87f4f08b65"><path d="M 73.957031 0 L 103.371094 29.417969 L 73.957031 58.835938 L 44.539062 29.417969 Z M 73.957031 0 " clip-rule="nonzero"/></clipPath><clipPath id="47ff7d6e8f"><path d="M 73.957031 0 L 103.371094 29.417969 L 73.957031 58.835938 L 44.539062 29.417969 Z M 73.957031 0 " clip-rule="nonzero"/></clipPath><clipPath id="139470a05f"><path d="M 20 0 L 80 0 L 80 59 L 20 59 Z M 20 0 " clip-rule="nonzero"/></clipPath><clipPath id="a0a3403555"><path d="M 50.027344 0 L 79.195312 29.167969 L 50.027344 58.335938 L 20.859375 29.167969 Z M 50.027344 0 " clip-rule="nonzero"/></clipPath><clipPath id="689e0e38cc"><path d="M 50.027344 0 L 79.445312 29.417969 L 50.027344 58.835938 L 20.609375 29.417969 Z M 50.027344 0 " clip-rule="nonzero"/></clipPath><clipPath id="a2e2d94237"><path d="M 50.027344 0 L 79.445312 29.417969 L 50.027344 58.835938 L 20.609375 29.417969 Z M 50.027344 0 " clip-rule="nonzero"/></clipPath><clipPath id="9983b4e02d"><path d="M 0 21.921875 L 150 21.921875 L 150 36.917969 L 0 36.917969 Z M 0 21.921875 " clip-rule="nonzero"/></clipPath></defs><g clip-path="url(#c31bc6ad79)"><g clip-path="url(#5d419881a3)"><g clip-path="url(#de1af5bbc7)"><g clip-path="url(#aa4968441f)"><path stroke-linecap="butt" transform="matrix(0.53033, 0.53033, -0.53033, 0.53033, 97.88317, 0.00115132)" fill="none" stroke-linejoin="miter" d="M -0.00142283 -0.000748117 L 55.469633 -0.000748117 L 55.469633 55.470308 L -0.00142283 55.470308 Z M -0.00142283 -0.000748117 " stroke="#dddddd" stroke-width="24" stroke-opacity="1" stroke-miterlimit="4"/></g></g></g></g><g clip-path="url(#0d98eb5fda)"><g clip-path="url(#81149dfc3d)"><g clip-path="url(#87f4f08b65)"><g clip-path="url(#47ff7d6e8f)"><path stroke-linecap="butt" transform="matrix(0.53033, 0.53033, -0.53033, 0.53033, 73.95533, 0.00115132)" fill="none" stroke-linejoin="miter" d="M 0.000518745 -0.00268969 L 55.467892 0.000993155 L 55.471575 55.468366 L 0.000518745 55.468366 Z M 0.000518745 -0.00268969 " stroke="#dddddd" stroke-width="24" stroke-opacity="1" stroke-miterlimit="4"/></g></g></g></g><g clip-path="url(#139470a05f)"><g clip-path="url(#a0a3403555)"><g clip-path="url(#689e0e38cc)"><g clip-path="url(#a2e2d94237)"><path stroke-linecap="butt" transform="matrix(0.53033, 0.53033, -0.53033, 0.53033, 50.027504, 0.00115132)" fill="none" stroke-linejoin="miter" d="M -0.0012361 -0.000934846 L 55.46982 -0.000934846 L 55.46982 55.470121 L -0.0012361 55.470121 Z M -0.0012361 -0.000934846 " stroke="#dddddd" stroke-width="24" stroke-opacity="1" stroke-miterlimit="4"/></g></g></g></g><g clip-path="url(#9983b4e02d)"><path fill="#ffffff" d="M 0 21.921875 L 149.972656 21.921875 L 149.972656 36.917969 L 0 36.917969 Z M 0 21.921875 " fill-opacity="1" fill-rule="nonzero"/></g><g fill="#696d6d" fill-opacity="1"><g transform="translate(34.941269, 33.261644)"><g><path d="M 11.1875 0 L 10.28125 0 L 10.28125 -5.453125 L 6.34375 0 L 5.875 0 L 1.921875 -5.453125 L 1.921875 0 L 1.015625 0 L 1.015625 -7.3125 L 1.703125 -7.3125 L 6.109375 -1.21875 L 10.5 -7.3125 L 11.1875 -7.3125 Z M 11.1875 0 "/></g></g></g><g fill="#696d6d" fill-opacity="1"><g transform="translate(47.154956, 33.261644)"><g><path d="M 1.921875 0 L 1.921875 -7.3125 L 1.015625 -7.3125 L 1.015625 0 Z M 1.921875 0 "/></g></g></g><g fill="#696d6d" fill-opacity="1"><g transform="translate(50.101329, 33.261644)"><g><path d="M 9.78125 0 L 9.171875 0 L 1.921875 -5.90625 L 1.921875 0 L 1.015625 0 L 1.015625 -7.3125 L 1.640625 -7.3125 L 8.875 -1.40625 L 8.875 -7.3125 L 9.78125 -7.3125 Z M 9.78125 0 "/></g></g></g><g fill="#696d6d" fill-opacity="1"><g transform="translate(60.908097, 33.261644)"><g><path d="M 4.65625 0 L 3.75 0 L 3.75 -6.40625 L 0.15625 -6.40625 L 0.15625 -7.3125 L 8.25 -7.3125 L 8.25 -6.40625 L 4.65625 -6.40625 Z M 4.65625 0 "/></g></g></g><g fill="#696d6d" fill-opacity="1"><g transform="translate(69.319025, 33.261644)"><g/></g></g><g fill="#696d6d" fill-opacity="1"><g transform="translate(71.908571, 33.261644)"><g><path d="M 9.328125 0 L 1.015625 0 L 1.015625 -7.3125 L 9.328125 -7.3125 L 9.328125 -6.40625 L 1.921875 -6.40625 L 1.921875 -4.109375 L 8.46875 -4.109375 L 8.46875 -3.203125 L 1.921875 -3.203125 L 1.921875 -0.90625 L 9.328125 -0.90625 Z M 9.328125 0 "/></g></g></g><g fill="#696d6d" fill-opacity="1"><g transform="translate(82.006782, 33.261644)"><g><path d="M 10.515625 0 L 9.421875 0 L 8.296875 -1.65625 L 2.359375 -1.65625 L 1.25 0 L 0.15625 0 L 5.09375 -7.3125 L 5.578125 -7.3125 Z M 7.6875 -2.5625 L 5.328125 -6.046875 L 2.96875 -2.5625 Z M 7.6875 -2.5625 "/></g></g></g><g fill="#696d6d" fill-opacity="1"><g transform="translate(92.675916, 33.261644)"><g><path d="M 7.875 0 L 2.421875 0 C 1.960938 0 1.570312 -0.160156 1.25 -0.484375 C 0.925781 -0.804688 0.765625 -1.195312 0.765625 -1.65625 L 1.671875 -1.65625 C 1.671875 -1.445312 1.742188 -1.269531 1.890625 -1.125 C 2.035156 -0.976562 2.210938 -0.90625 2.421875 -0.90625 L 7.875 -0.90625 C 8.082031 -0.90625 8.257812 -0.976562 8.40625 -1.125 C 8.550781 -1.269531 8.625 -1.445312 8.625 -1.65625 L 8.625 -2.453125 C 8.625 -2.648438 8.550781 -2.820312 8.40625 -2.96875 C 8.257812 -3.125 8.082031 -3.203125 7.875 -3.203125 L 2.421875 -3.203125 C 1.960938 -3.203125 1.570312 -3.363281 1.25 -3.6875 C 0.925781 -4.007812 0.765625 -4.398438 0.765625 -4.859375 L 0.765625 -5.640625 C 0.765625 -6.097656 0.925781 -6.488281 1.25 -6.8125 C 1.570312 -7.144531 1.960938 -7.3125 2.421875 -7.3125 L 7.875 -7.3125 C 8.332031 -7.3125 8.722656 -7.144531 9.046875 -6.8125 C 9.367188 -6.488281 9.53125 -6.097656 9.53125 -5.640625 L 8.625 -5.640625 C 8.625 -5.847656 8.550781 -6.023438 8.40625 -6.171875 C 8.257812 -6.328125 8.082031 -6.40625 7.875 -6.40625 L 2.421875 -6.40625 C 2.210938 -6.40625 2.035156 -6.328125 1.890625 -6.171875 C 1.742188 -6.023438 1.671875 -5.847656 1.671875 -5.640625 L 1.671875 -4.859375 C 1.671875 -4.648438 1.742188 -4.472656 1.890625 -4.328125 C 2.035156 -4.179688 2.210938 -4.109375 2.421875 -4.109375 L 7.875 -4.109375 C 8.332031 -4.109375 8.722656 -3.945312 9.046875 -3.625 C 9.367188 -3.300781 9.53125 -2.910156 9.53125 -2.453125 L 9.53125 -1.65625 C 9.53125 -1.195312 9.367188 -0.804688 9.046875 -0.484375 C 8.722656 -0.160156 8.332031 0 7.875 0 Z M 7.875 0 "/></g></g></g><g fill="#696d6d" fill-opacity="1"><g transform="translate(102.972931, 33.261644)"><g><path d="M 5.4375 0 L 4.546875 0 L 4.546875 -3.4375 L 0.15625 -7.3125 L 1.53125 -7.3125 L 4.984375 -4.25 L 8.453125 -7.3125 L 9.828125 -7.3125 L 5.4375 -3.4375 Z M 5.4375 0 "/></g></g></g></svg>