<svg xmlns="http://www.w3.org/2000/svg" xmlns:xlink="http://www.w3.org/1999/xlink" width="400" zoomAndPan="magnify" viewBox="0 0 300 60" height="80" preserveAspectRatio="xMidYMid meet" version="1.0"><defs><g/><clipPath id="7199e66448"><path d="M 23.058594 0 L 183.933594 0 L 183.933594 58.582031 L 23.058594 58.582031 Z M 23.058594 0 " clip-rule="nonzero"/></clipPath><clipPath id="5c7666c226"><path d="M 60.941406 0 L 180.613281 0 C 181.6875 0 182.679688 0.578125 183.214844 1.511719 C 183.746094 2.445312 183.738281 3.59375 183.1875 4.515625 L 153.847656 54.066406 C 152.1875 56.867188 149.175781 58.582031 145.921875 58.582031 L 26.25 58.582031 C 25.175781 58.582031 24.183594 58.007812 23.648438 57.074219 C 23.117188 56.136719 23.128906 54.992188 23.675781 54.066406 L 53.015625 4.515625 C 54.675781 1.71875 57.6875 0 60.941406 0 Z M 60.941406 0 " clip-rule="nonzero"/></clipPath></defs><g clip-path="url(#7199e66448)"><g clip-path="url(#5c7666c226)"><path fill="#dddddd" d="M 21 0 L 185.765625 0 L 185.765625 58.582031 L 21 58.582031 Z M 21 0 " fill-opacity="1" fill-rule="nonzero"/></g></g><g fill="#222b3c" fill-opacity="1"><g transform="translate(35.89305, 48.72296)"><g><path d="M 38.9375 -26.984375 C 41.863281 -26.984375 44.1875 -26.054688 45.90625 -24.203125 C 47.632812 -22.347656 48.5 -19.875 48.5 -16.78125 L 48.5 0 L 40.015625 0 L 40.015625 -14.40625 C 40.015625 -15.988281 39.601562 -17.226562 38.78125 -18.125 C 37.957031 -19.03125 36.835938 -19.484375 35.421875 -19.484375 C 33.847656 -19.453125 32.59375 -18.851562 31.65625 -17.6875 C 30.71875 -16.519531 30.25 -15.015625 30.25 -13.171875 L 30.25 0 L 21.71875 0 L 21.71875 -14.40625 C 21.71875 -15.988281 21.3125 -17.226562 20.5 -18.125 C 19.695312 -19.03125 18.585938 -19.484375 17.171875 -19.484375 C 15.554688 -19.453125 14.269531 -18.84375 13.3125 -17.65625 C 12.363281 -16.476562 11.890625 -14.984375 11.890625 -13.171875 L 11.890625 0 L 3.40625 0 L 3.40625 -26.59375 L 11.890625 -26.59375 L 11.890625 -22.203125 C 13.703125 -25.328125 16.628906 -26.921875 20.671875 -26.984375 C 22.804688 -26.984375 24.65625 -26.445312 26.21875 -25.375 C 27.78125 -24.3125 28.894531 -22.84375 29.5625 -20.96875 C 31.300781 -24.914062 34.425781 -26.921875 38.9375 -26.984375 Z M 38.9375 -26.984375 "/></g></g></g><g fill="#222b3c" fill-opacity="1"><g transform="translate(84.240882, 48.72296)"><g><path d="M 4.453125 -37.46875 C 5.296875 -38.3125 6.375 -38.734375 7.6875 -38.734375 C 9.007812 -38.734375 10.085938 -38.3125 10.921875 -37.46875 C 11.765625 -36.632812 12.1875 -35.554688 12.1875 -34.234375 C 12.1875 -32.921875 11.765625 -31.835938 10.921875 -30.984375 C 10.085938 -30.128906 9.007812 -29.703125 7.6875 -29.703125 C 6.375 -29.703125 5.296875 -30.128906 4.453125 -30.984375 C 3.617188 -31.835938 3.203125 -32.921875 3.203125 -34.234375 C 3.203125 -35.554688 3.617188 -36.632812 4.453125 -37.46875 Z M 11.890625 0 L 3.40625 0 L 3.40625 -26.59375 L 11.890625 -26.59375 Z M 11.890625 0 "/></g></g></g><g fill="#222b3c" fill-opacity="1"><g transform="translate(96.771647, 48.72296)"><g><path d="M 20.828125 -26.984375 C 23.753906 -26.984375 26.101562 -26.054688 27.875 -24.203125 C 29.65625 -22.347656 30.546875 -19.875 30.546875 -16.78125 L 30.546875 0 L 22.0625 0 L 22.0625 -14.40625 C 22.0625 -15.957031 21.640625 -17.179688 20.796875 -18.078125 C 19.960938 -18.984375 18.820312 -19.4375 17.375 -19.4375 C 15.851562 -19.4375 14.609375 -18.941406 13.640625 -17.953125 C 12.671875 -16.972656 12.101562 -15.675781 11.9375 -14.0625 L 11.9375 0 L 3.40625 0 L 3.40625 -26.59375 L 11.9375 -26.59375 L 11.9375 -22.25 C 13.8125 -25.34375 16.773438 -26.921875 20.828125 -26.984375 Z M 20.828125 -26.984375 "/></g></g></g><g fill="#222b3c" fill-opacity="1"><g transform="translate(127.161607, 48.72296)"><g><path d="M 18.90625 -7.359375 L 20.578125 -1.4375 C 18.503906 -0.21875 16.132812 0.390625 13.46875 0.390625 C 10.832031 0.390625 8.703125 -0.335938 7.078125 -1.796875 C 5.453125 -3.265625 4.640625 -5.347656 4.640625 -8.046875 L 4.640625 -19.78125 L 0.9375 -19.78125 L 0.9375 -25.359375 L 4.640625 -25.359375 L 4.640625 -32.765625 L 13.125 -32.765625 L 13.125 -25.40625 L 20.078125 -25.40625 L 20.078125 -19.78125 L 13.125 -19.78125 L 13.125 -9.375 C 13.125 -8.351562 13.328125 -7.601562 13.734375 -7.125 C 14.148438 -6.65625 14.769531 -6.4375 15.59375 -6.46875 C 16.382812 -6.46875 17.488281 -6.765625 18.90625 -7.359375 Z M 18.90625 -7.359375 "/></g></g></g><g fill="#dddddd" fill-opacity="1"><g transform="translate(164.086064, 48.26592)"><g><path d="M 15.046875 -26.890625 C 19.648438 -26.890625 23.109375 -25.472656 25.421875 -22.640625 C 27.742188 -19.816406 28.757812 -15.9375 28.46875 -11 L 9.765625 -11 C 10.191406 -9.414062 10.945312 -8.195312 12.03125 -7.34375 C 13.113281 -6.488281 14.445312 -6.0625 16.03125 -6.0625 C 18.46875 -6.0625 20.585938 -6.96875 22.390625 -8.78125 L 26.890625 -4.390625 C 24.023438 -1.265625 20.160156 0.296875 15.296875 0.296875 C 10.984375 0.296875 7.550781 -0.9375 5 -3.40625 C 2.457031 -5.875 1.1875 -9.144531 1.1875 -13.21875 C 1.1875 -17.332031 2.457031 -20.640625 5 -23.140625 C 7.550781 -25.640625 10.898438 -26.890625 15.046875 -26.890625 Z M 9.625 -15.59375 L 20.28125 -15.59375 C 20.28125 -17.195312 19.8125 -18.492188 18.875 -19.484375 C 17.9375 -20.472656 16.691406 -20.96875 15.140625 -20.96875 C 13.691406 -20.96875 12.472656 -20.476562 11.484375 -19.5 C 10.503906 -18.53125 9.882812 -17.226562 9.625 -15.59375 Z M 9.625 -15.59375 "/></g></g></g><g fill="#dddddd" fill-opacity="1"><g transform="translate(190.967973, 48.26592)"><g><path d="M 15.34375 -26.984375 C 18.988281 -26.984375 21.820312 -26.132812 23.84375 -24.4375 C 25.875 -22.75 26.90625 -20.390625 26.9375 -17.359375 L 26.9375 0 L 18.59375 0 L 18.59375 -3.0625 C 16.851562 -0.757812 14.140625 0.390625 10.453125 0.390625 C 7.660156 0.390625 5.441406 -0.378906 3.796875 -1.921875 C 2.148438 -3.472656 1.328125 -5.476562 1.328125 -7.9375 C 1.328125 -10.46875 2.207031 -12.429688 3.96875 -13.828125 C 5.726562 -15.234375 8.253906 -15.953125 11.546875 -15.984375 L 18.546875 -15.984375 L 18.546875 -16.375 C 18.546875 -17.6875 18.109375 -18.710938 17.234375 -19.453125 C 16.367188 -20.191406 15.082031 -20.5625 13.375 -20.5625 C 10.96875 -20.5625 8.316406 -19.820312 5.421875 -18.34375 L 3.015625 -23.96875 C 7.316406 -25.976562 11.425781 -26.984375 15.34375 -26.984375 Z M 13.078125 -5.375 C 14.421875 -5.375 15.601562 -5.710938 16.625 -6.390625 C 17.644531 -7.066406 18.285156 -7.945312 18.546875 -9.03125 L 18.546875 -11.390625 L 13.171875 -11.390625 C 10.609375 -11.390625 9.328125 -10.4375 9.328125 -8.53125 C 9.328125 -7.539062 9.65625 -6.765625 10.3125 -6.203125 C 10.96875 -5.648438 11.890625 -5.375 13.078125 -5.375 Z M 13.078125 -5.375 "/></g></g></g><g fill="#dddddd" fill-opacity="1"><g transform="translate(217.75123, 48.26592)"><g><path d="M 12.921875 -26.984375 C 16.835938 -26.984375 20.488281 -25.976562 23.875 -23.96875 L 20.96875 -18.453125 C 17.675781 -20.222656 14.878906 -21.109375 12.578125 -21.109375 C 10.835938 -21.109375 9.96875 -20.5 9.96875 -19.28125 C 9.96875 -18.625 10.441406 -18.070312 11.390625 -17.625 C 12.347656 -17.1875 13.515625 -16.785156 14.890625 -16.421875 C 16.273438 -16.066406 17.648438 -15.613281 19.015625 -15.0625 C 20.378906 -14.519531 21.535156 -13.65625 22.484375 -12.46875 C 23.441406 -11.289062 23.921875 -9.847656 23.921875 -8.140625 C 23.921875 -5.472656 22.882812 -3.390625 20.8125 -1.890625 C 18.738281 -0.398438 16.046875 0.34375 12.734375 0.34375 C 8.023438 0.34375 4.046875 -0.90625 0.796875 -3.40625 L 3.5 -8.828125 C 6.625 -6.628906 9.765625 -5.53125 12.921875 -5.53125 C 14.859375 -5.53125 15.828125 -6.132812 15.828125 -7.34375 C 15.828125 -8.039062 15.359375 -8.617188 14.421875 -9.078125 C 13.484375 -9.535156 12.34375 -9.945312 11 -10.3125 C 9.65625 -10.675781 8.304688 -11.128906 6.953125 -11.671875 C 5.609375 -12.210938 4.46875 -13.054688 3.53125 -14.203125 C 2.59375 -15.359375 2.125 -16.804688 2.125 -18.546875 C 2.125 -21.210938 3.125 -23.285156 5.125 -24.765625 C 7.132812 -26.242188 9.734375 -26.984375 12.921875 -26.984375 Z M 12.921875 -26.984375 "/></g></g></g><g fill="#dddddd" fill-opacity="1"><g transform="translate(240.243111, 48.26592)"><g><path d="M 28.953125 -26.59375 L 17.46875 2.765625 C 15.488281 7.566406 12.066406 9.96875 7.203125 9.96875 C 4.367188 9.96875 1.785156 9.0625 -0.546875 7.25 L 3.015625 1.4375 C 4.191406 2.382812 5.359375 2.859375 6.515625 2.859375 C 8.023438 2.859375 9.125 2.148438 9.8125 0.734375 L 10.453125 -0.59375 L -0.59375 -26.59375 L 8.1875 -26.59375 L 14.703125 -8.921875 L 20.46875 -26.59375 Z M 28.953125 -26.59375 "/></g></g></g></svg>