<svg xmlns="http://www.w3.org/2000/svg" xmlns:xlink="http://www.w3.org/1999/xlink" width="40" zoomAndPan="magnify" viewBox="0 0 30 30.000001" height="40" preserveAspectRatio="xMidYMid meet" version="1.0"><defs><clipPath id="64027655a5"><path d="M 0.484375 0 L 29.515625 0 L 29.515625 29.03125 L 0.484375 29.03125 Z M 0.484375 0 " clip-rule="nonzero"/></clipPath><clipPath id="6e15886d95"><path d="M 5.914062 0 L 25.511719 0 L 25.511719 29.03125 L 5.914062 29.03125 Z M 5.914062 0 " clip-rule="nonzero"/></clipPath></defs><g clip-path="url(#64027655a5)"><path fill="#ffffff" d="M 0.484375 0 L 29.515625 0 L 29.515625 29.03125 L 0.484375 29.03125 Z M 0.484375 0 " fill-opacity="1" fill-rule="nonzero"/><path fill="#2a3447" d="M 0.484375 0 L 29.515625 0 L 29.515625 29.03125 L 0.484375 29.03125 Z M 0.484375 0 " fill-opacity="1" fill-rule="nonzero"/></g><g clip-path="url(#6e15886d95)"><path fill="#86cacf" d="M 16.460938 21.109375 C 16.460938 18.925781 14.6875 17.152344 12.507812 17.152344 C 10.324219 17.152344 8.550781 18.925781 8.550781 21.109375 C 8.550781 23.292969 10.324219 25.066406 12.507812 25.066406 C 14.6875 25.066406 16.460938 23.292969 16.460938 21.109375 Z M 8.550781 5.285156 L 8.550781 15.835938 L 17.78125 15.835938 L 17.78125 26.382812 L 5.914062 26.382812 L 5.914062 29.019531 L 25.691406 29.019531 L 25.691406 26.382812 L 21.738281 26.382812 L 21.738281 2.648438 L 25.691406 2.648438 L 25.691406 0.0117188 L 13.824219 0.0117188 C 10.910156 0.0117188 8.550781 2.371094 8.550781 5.285156 Z M 8.550781 5.285156 " fill-opacity="1" fill-rule="nonzero"/></g></svg>